<svg xmlns="http://www.w3.org/2000/svg" width="156" height="43" viewBox="0 0 156 43"><defs><style>.a{fill:#fff;}</style></defs><g transform="translate(-457.144 -1563.337)"><g transform="translate(457.144 1563.337)"><path class="a" d="M479.49,1665.578l.917.5,0,3.678a.424.424,0,0,1-.3.405l-22.4,6.783a.428.428,0,0,1-.532-.534L464,1654.021a.427.427,0,0,1,.408-.3l3.652,0,.5.928-9.274,18.564-.013.025a3.646,3.646,0,0,0,1.628,1.627l.024-.013Z" transform="translate(-457.144 -1633.959)"/><path class="a" d="M500.432,1654.193l-.009,8.5-17.251,8.619a.223.223,0,0,1-.3-.3l8.621-17.253,8.513.011A.423.423,0,0,1,500.432,1654.193Z" transform="translate(-477.156 -1633.99)"/><g transform="translate(2.122)"><g transform="translate(1.634)"><path class="a" d="M520.376,1563.337H506.5a3.008,3.008,0,0,0-2.117.868l-8.245,8.19H486.125a.934.934,0,0,0-.937.932v1.251l4.7,8.638,3.424,0,4.3-8.54,9.963,2.243a1.331,1.331,0,0,1,1.012,1.005l2.259,9.894-8.6,4.269,0,3.391,8.707,4.675,0,0,0,0,1.258,0a.936.936,0,0,0,.939-.932l0-9.945,8.249-8.19a2.966,2.966,0,0,0,.875-2.1v-13.776A1.887,1.887,0,0,0,520.376,1563.337Zm-28.78,18.416-3.909-7.174,7.516,0Zm19.35,15.924-7.221-3.88,7.221-3.582Zm9.124-18.359-7.264,7.213-2.56-11.207,0-.046-.046,0-11.285-2.542,7.264-7.213h13.15a.74.74,0,0,1,.744.739Z" transform="translate(-482.734 -1563.337)"/><path class="a" d="M474.133,1749.157l-.009.02-.016-.007Z" transform="translate(-474.108 -1708.264)"/></g><g transform="translate(0 39.255)"><path class="a" d="M466.748,1741.757l-.013.024-.007-.015Z" transform="translate(-466.728 -1741.757)"/></g></g></g><path class="a" d="M607.615,1583.454l-5.5-.013a.689.689,0,0,0-.489,1.177l5.517,5.518a.69.69,0,0,0,1.177-.489l-.013-5.5A.689.689,0,0,0,607.615,1583.454Z" transform="translate(-112.349 -15.652)"/><g transform="translate(508.325 1577.379)"><path class="a" d="M708.962,1641.247l1.727,8.723h-5.1l-.2-.95-16.41.749.4-2.965,5.384-7.428h-5.988l.374-2.763H713.28l-.374,2.763h-12.12l-5.067,7.111,9.1-.432-.95-4.808Zm3.6-11.429-.4,2.821h-20.3l.4-2.821Z" transform="translate(-688.781 -1629.3)"/><path class="a" d="M805.781,1647.17l2.274-12.322H810.1l-2.274,12.322Zm4.865-13.128h-2.735l.374-2.735h2.735l.432-2.994-.72-.835h5.211l-.547,3.829H818.1l-.374,2.735h-2.735l-1.987,14.164h-4.376Zm3.714,11.487.95-10.68h2.044l-.95,10.68Zm12.034,2.677-.922-1.324-.72,1.324h-4.376l2.649-4.894-1.324-1.929-1.612,6.823H816l4.088-17.446h-1.065l.374-2.735h12.034l-.374,2.735-1.5,3.829h1.5l-.374,2.735-3.167,5.786,3.541,5.1Zm-2.217-17.446-1.526,6.564h.921l1.5,2.188,1.18-2.188h-2.13l2.5-6.564Z" transform="translate(-779.871 -1627.478)"/><path class="a" d="M934.49,1644.435h-5.47l4.577-13.128h5.47Zm1.094,3.771,2.562-2.649,2.447-17.273-.691-.806h6.276l-2.649,18.828a2.267,2.267,0,0,1-2.245,1.9Zm11.141-16.9h5.47l.892,13.128h-5.47Z" transform="translate(-875.819 -1627.478)"/><path class="a" d="M1049.654,1629.71l.144-1.008-.95-1.094h5.787l-.288,2.1h2.677l-.4,2.763h-2.677l-.23,1.641h3.224l-.374,2.735h-2.13l-.288,2.159h2.159l-.374,2.764h-2.188l-.461,3.282h15.028l-.4,2.764H1052.59l-5.038-1.583-.461,1.813h-3.282l2.13-9.184-.691-.921h4.376l-1.3,5.124.864.23.892-6.449h-4.664l.374-2.735h3.224l.23-1.641h-2.677l.4-2.763Zm19.173,7.082-1.036,7.485h-11.4l1.036-7.485Zm.345-2.677a2.274,2.274,0,0,1-.749,1.411,2.116,2.116,0,0,1-1.468.576h-3.743l1.9-1.871.49-3.455h-1.267l-2.821,5.326h-4.088l2.821-5.326h-2.188l.345-2.649h11.6Zm-5.182,7.974.432-3.109H1061.2l-.432,3.109Z" transform="translate(-965.189 -1627.579)"/></g></g></svg>