<svg xmlns="http://www.w3.org/2000/svg" width="44.114" height="44.078" viewBox="0 0 44.114 44.078"><defs><style>.a{fill:#333;}</style></defs><g transform="translate(-678.942 -1105.653)"><path class="a" d="M330.5,173.133l.934.505,0,3.748a.432.432,0,0,1-.309.413l-22.83,6.912a.436.436,0,0,1-.542-.544l6.966-22.812a.435.435,0,0,1,.415-.309l3.721,0,.512.945-9.45,18.917-.014.025a3.718,3.718,0,0,0,1.659,1.659l.025-.014Z" transform="translate(371.216 965)"/><path class="a" d="M371.445,161.563l-.009,8.658L353.858,179a.227.227,0,0,1-.3-.3l8.785-17.581,8.674.011a.431.431,0,0,1,.433.433" transform="translate(331.214 964.937)"/><path class="a" d="M393.553,0H379.417a3.054,3.054,0,0,0-2.157.891l-8.4,8.4H358.65a.955.955,0,0,0-.954.957v1.284l4.793,8.864,3.489,0,4.378-8.762,10.152,2.3a1.361,1.361,0,0,1,1.031,1.031l2.3,10.152-8.765,4.38,0,3.48,8.873,4.8,0,0,0,0,1.282,0a.957.957,0,0,0,.957-.957l0-10.2,8.406-8.4a3.054,3.054,0,0,0,.891-2.157V1.929A1.93,1.93,0,0,0,393.553,0M364.227,18.9l-3.983-7.361,7.659,0Zm19.718,16.34-7.359-3.98,7.359-3.676Zm9.3-18.838-7.4,7.4-2.609-11.5,0-.047-.047,0-11.5-2.609,7.4-7.4h13.4a.757.757,0,0,1,.758.758Z" transform="translate(327.574 1105.653)"/><path class="a" d="M337.978,331.111l-.009.02-.016-.007Z" transform="translate(344.817 816.473)"/><path class="a" d="M324.823,317.925l-.014.025-.007-.016Z" transform="translate(356.302 827.989)"/><path class="a" d="M571.12,35.837l-5.609-.014a.7.7,0,0,0-.5,1.2l5.622,5.622a.7.7,0,0,0,1.2-.5l-.014-5.609a.7.7,0,0,0-.7-.7" transform="translate(146.692 1074.366)"/></g></svg>